<svg width="192" height="158" viewBox="0 0 192 158" fill="none" xmlns="http://www.w3.org/2000/svg">
<path d="M82.1253 86.4378H116.35L134.849 106.828H82.1253V86.4378Z" fill="#2EA2C9"/>
<path d="M57.1508 16H111.262L127.449 34.5363H73.338L57.1508 16Z" fill="#2EA2C9"/>
<path d="M94.1595 37.3167H127.459L82.591 106.832L61.3132 85.9631L94.1595 37.3167Z" fill="#224F68"/>
<path d="M165.448 127.599L159.009 141.765H153.822L162.618 124.676H165.919L165.448 127.599ZM170.797 141.765L164.342 127.599L163.822 124.676H167.155L176 141.765H170.797ZM170.504 135.404V138.162H158.001V135.404H170.504Z" fill="#224F68"/>
<path d="M124.6 124.676H128.73L134.811 137.223L140.892 124.676H145.022L136.47 141.765H133.153L124.6 124.676ZM122.373 124.676H126.486L127.234 136.906V141.765H122.373V124.676ZM143.136 124.676H147.266V141.765H142.388V136.906L143.136 124.676Z" fill="#224F68"/>
<path d="M105.324 127.599L98.8851 141.765H93.6984L102.495 124.676H105.795L105.324 127.599ZM110.673 141.765L104.218 127.599L103.698 124.676H107.031L115.876 141.765H110.673ZM110.381 135.404V138.162H97.8771V135.404H110.381Z" fill="#224F68"/>
<path d="M87.0663 124.676V141.765H82.1885L72.6768 130.31V141.765H67.7989V124.676H72.6768L82.2048 136.143V124.676H87.0663Z" fill="#224F68"/>
<path d="M61.0639 132.822V133.631C61.0639 134.93 60.82 136.096 60.3322 137.129C59.8445 138.162 59.1561 139.042 58.2673 139.77C57.3784 140.49 56.3162 141.041 55.0804 141.425C53.8556 141.808 52.4952 142 50.9993 142C49.5143 142 48.1539 141.808 46.9182 141.425C45.6933 141.041 44.631 140.49 43.7314 139.77C42.8317 139.042 42.1325 138.162 41.6339 137.129C41.1461 136.096 40.9022 134.93 40.9022 133.631V132.822C40.9022 131.515 41.1461 130.349 41.6339 129.324C42.1217 128.291 42.81 127.411 43.6988 126.683C44.5985 125.955 45.6608 125.4 46.8857 125.016C48.1214 124.633 49.4818 124.441 50.9668 124.441C52.4627 124.441 53.823 124.633 55.0479 125.016C56.2836 125.4 57.3459 125.955 58.2348 126.683C59.1345 127.411 59.8282 128.291 60.316 129.324C60.8146 130.349 61.0639 131.515 61.0639 132.822ZM56.1373 133.631V132.798C56.1373 131.89 56.0235 131.092 55.7959 130.404C55.5682 129.715 55.2322 129.136 54.7878 128.667C54.3433 128.197 53.8014 127.845 53.1618 127.61C52.5223 127.368 51.7906 127.246 50.9668 127.246C50.143 127.246 49.4113 127.368 48.7718 127.61C48.1431 127.845 47.6065 128.197 47.1621 128.667C46.7285 129.136 46.3979 129.715 46.1703 130.404C45.9426 131.092 45.8288 131.89 45.8288 132.798V133.631C45.8288 134.531 45.9426 135.329 46.1703 136.026C46.3979 136.714 46.7339 137.297 47.1784 137.775C47.6228 138.244 48.1648 138.6 48.8043 138.843C49.4438 139.085 50.1755 139.207 50.9993 139.207C51.8231 139.207 52.5548 139.085 53.1943 138.843C53.8339 138.6 54.3704 138.244 54.804 137.775C55.2376 137.297 55.5682 136.714 55.7959 136.026C56.0235 135.329 56.1373 134.531 56.1373 133.631Z" fill="#224F68"/>
<path d="M34.048 139.019V141.765H17.2682V139.019H34.048ZM33.8041 126.636L19.4307 141.765H16V139.746L30.4872 124.676H33.8041V126.636ZM32.1294 124.676V127.434H16.0163V124.676H32.1294Z" fill="#224F68"/>
</svg>
