<svg width="240" height="62" viewBox="0 0 240 62" fill="none" xmlns="http://www.w3.org/2000/svg">
<path d="M18.3689 43.9473H35.9879L45.5117 54.4979H18.3689V43.9473Z" fill="#2EA2C9"/>
<path d="M5.51172 7.5H33.3689L41.7022 17.0914H13.8451L5.51172 7.5Z" fill="#2EA2C9"/>
<path d="M24.5642 18.5301H41.7071L18.6086 54.5L7.65458 43.7017L24.5642 18.5301Z" fill="#224F68"/>
<path d="M223.08 24.934L216.119 40.2194H210.512L220.021 21.7806H223.59L223.08 24.934ZM228.863 40.2194L221.885 24.934L221.322 21.7806H224.926L234.488 40.2194H228.863ZM228.547 33.3555V36.3316H215.029V33.3555H228.547Z" fill="#224F68"/>
<path d="M178.92 21.7806H183.385L189.959 35.3184L196.533 21.7806H200.998L191.752 40.2194H188.166L178.92 21.7806ZM176.512 21.7806H180.959L181.768 34.9765V40.2194H176.512V21.7806ZM198.959 21.7806H203.424V40.2194H198.15V34.9765L198.959 21.7806Z" fill="#224F68"/>
<path d="M158.08 24.934L151.119 40.2194H145.512L155.021 21.7806H158.59L158.08 24.934ZM163.863 40.2194L156.885 24.934L156.322 21.7806H159.926L169.488 40.2194H163.863ZM163.547 33.3555V36.3316H150.029V33.3555H163.547Z" fill="#224F68"/>
<path d="M138.342 21.7806V40.2194H133.068L122.785 27.8593V40.2194H117.512V21.7806H122.785L133.086 34.1533V21.7806H138.342Z" fill="#224F68"/>
<path d="M110.23 30.5694V31.4432C110.23 32.8447 109.967 34.1027 109.439 35.2171C108.912 36.3315 108.168 37.2813 107.207 38.0665C106.246 38.8432 105.098 39.4384 103.762 39.8521C102.438 40.2658 100.967 40.4727 99.3496 40.4727C97.7441 40.4727 96.2734 40.2658 94.9375 39.8521C93.6133 39.4384 92.4648 38.8432 91.4922 38.0665C90.5195 37.2813 89.7637 36.3315 89.2246 35.2171C88.6973 34.1027 88.4336 32.8447 88.4336 31.4432V30.5694C88.4336 29.1595 88.6973 27.9015 89.2246 26.7956C89.752 25.6811 90.4961 24.7313 91.457 23.9462C92.4297 23.161 93.5781 22.5616 94.9023 22.1479C96.2383 21.7342 97.709 21.5273 99.3145 21.5273C100.932 21.5273 102.402 21.7342 103.727 22.1479C105.062 22.5616 106.211 23.161 107.172 23.9462C108.145 24.7313 108.895 25.6811 109.422 26.7956C109.961 27.9015 110.23 29.1595 110.23 30.5694ZM104.904 31.4432V30.5441C104.904 29.5647 104.781 28.7036 104.535 27.9606C104.289 27.2177 103.926 26.5929 103.445 26.0864C102.965 25.5798 102.379 25.1999 101.688 24.9466C100.996 24.6849 100.205 24.554 99.3145 24.554C98.4238 24.554 97.6328 24.6849 96.9414 24.9466C96.2617 25.1999 95.6816 25.5798 95.2012 26.0864C94.7324 26.5929 94.375 27.2177 94.1289 27.9606C93.8828 28.7036 93.7598 29.5647 93.7598 30.5441V31.4432C93.7598 32.4141 93.8828 33.2753 94.1289 34.0267C94.375 34.7696 94.7383 35.3986 95.2188 35.9136C95.6992 36.4202 96.2852 36.8043 96.9766 37.066C97.668 37.3278 98.459 37.4586 99.3496 37.4586C100.24 37.4586 101.031 37.3278 101.723 37.066C102.414 36.8043 102.994 36.4202 103.463 35.9136C103.932 35.3986 104.289 34.7696 104.535 34.0267C104.781 33.2753 104.904 32.4141 104.904 31.4432Z" fill="#224F68"/>
<path d="M81.0234 37.256V40.2194H62.8828V37.256H81.0234ZM80.7598 23.8955L65.2207 40.2194H61.5117V38.0412L77.1738 21.7806H80.7598V23.8955ZM78.9492 21.7806V24.7567H61.5293V21.7806H78.9492Z" fill="#224F68"/>
</svg>
